<?xml version="1.0" encoding="utf-8"?>
<!-- Uploaded to: SVG Repo, www.svgrepo.com, Generator: SVG Repo Mixer Tools -->
<svg fill="#000000" height="800px" width="800px" version="1.1" id="Layer_1" xmlns="http://www.w3.org/2000/svg" xmlns:xlink="http://www.w3.org/1999/xlink" 
	 viewBox="0 0 128 128" xml:space="preserve">
<path d="M119.4,125c-2.4,0-4.8-0.6-6.9-1.5c-2.2-1-4.6-1.6-7.1-1.6c-2.5,0-5,0.6-7.1,1.6c-2.1,0.9-4.5,1.5-6.9,1.5
	c-2.4,0-4.8-0.6-6.9-1.5c-2.2-1-4.6-1.6-7.1-1.6s-5,0.6-7.1,1.6c-2.1,0.9-4.5,1.5-6.9,1.5c-2.5,0-4.8-0.6-6.9-1.5
	c-2.2-1-4.6-1.6-7.1-1.6c-2.5,0-5,0.6-7.1,1.6c-2.1,0.9-4.5,1.5-6.9,1.5c-2.4,0-4.8-0.6-6.9-1.5c-2.2-1-4.6-1.6-7.1-1.6
	s-5,0.6-7.1,1.6c-2.1,0.9-4.5,1.5-6.9,1.5v-10.4c2.5,0,4.8-0.6,6.9-1.5c2.1-1,4.6-1.6,7.1-1.6s4.9,0.6,7.1,1.6
	c2.1,0.9,4.5,1.5,6.9,1.5c2.5,0,4.8-0.6,6.9-1.5c2.1-1,4.6-1.6,7.1-1.6c2.5,0,4.9,0.6,7.1,1.6c2.1,0.9,4.4,1.5,6.9,1.5
	c2.4,0,4.8-0.6,6.9-1.5c2.1-1,4.6-1.6,7.1-1.6s4.9,0.6,7.1,1.6c2.1,0.9,4.4,1.5,6.9,1.5c2.5,0,4.8-0.6,6.9-1.5
	c2.1-1,4.6-1.6,7.1-1.6c2.5,0,5,0.6,7.1,1.6c2.1,0.9,4.4,1.5,6.9,1.5V125z"/>
<polygon points="74.4,3.9 74.4,81.8 10.7,81.8 "/>
<path d="M80.5,21.9c18.8,8.7,41,32,38.1,59.9H80.5V21.9z"/>
<path d="M110.5,87.4H93.1H25.7v15.4c0.9,0.3,1.9,0.5,2.8,1c2.1,0.9,4.5,1.5,6.9,1.5c2.5,0,4.8-0.6,6.9-1.5c2.1-1,4.6-1.6,7.1-1.6
	c2.5,0,5,0.6,7.1,1.6c2.1,0.9,4.4,1.5,6.9,1.5c2.4,0,4.8-0.6,6.9-1.5c2.1-1,4.6-1.6,7.1-1.6c2.5,0,4.9,0.6,7.1,1.6
	c2.1,0.9,4.4,1.5,6.9,1.5c0.5,0,0.9-0.1,1.4-0.2c0,0,0.1,0.1,0.1,0.1c0.3,0,0.5-0.1,0.8-0.1c0.6-0.1,1.1-0.1,1.7-0.3
	c5-1,8.2-4.9,8.2-4.9l9.8-12.3H110.5z"/>
</svg>